<?xml version="1.0" encoding="utf-8"?>
<!-- Generator: Adobe Illustrator 16.0.0, SVG Export Plug-In . SVG Version: 6.00 Build 0)  -->
<!DOCTYPE svg PUBLIC "-//W3C//DTD SVG 1.1//EN" "http://www.w3.org/Graphics/SVG/1.1/DTD/svg11.dtd">
<svg version="1.1" id="Layer_1" xmlns="http://www.w3.org/2000/svg" xmlns:xlink="http://www.w3.org/1999/xlink" x="0px" y="0px"
	 width="235.275px" height="57px" viewBox="0 0 235.275 57" enable-background="new 0 0 235.275 57" xml:space="preserve">
<g>
	<path fill="#414346" d="M84.476,30.447c0,1.364-0.258,2.672-0.768,3.92c-0.51,1.247-1.239,2.347-2.194,3.296
		c-0.946,0.949-2.095,1.705-3.442,2.263c-1.345,0.558-2.862,0.838-4.542,0.838c-1.318,0-2.562-0.173-3.734-0.517
		s-2.232-0.826-3.188-1.455c-0.961-0.63-1.793-1.389-2.517-2.273c-0.715-0.888-1.292-1.879-1.723-2.965l2.364-2.065
		c0.396,0.936,0.902,1.778,1.506,2.522c0.602,0.751,1.283,1.38,2.042,1.903c0.762,0.52,1.585,0.918,2.48,1.197
		c0.895,0.275,1.835,0.416,2.814,0.416c1.113,0,2.117-0.185,3.012-0.551c0.882-0.368,1.636-0.869,2.253-1.506
		c0.621-0.636,1.096-1.365,1.43-2.197c0.322-0.823,0.492-1.696,0.492-2.613c0-0.779-0.111-1.5-0.311-2.15
		c-0.208-0.65-0.541-1.266-0.999-1.834c-0.463-0.579-1.052-1.119-1.781-1.635c-0.727-0.51-1.61-1.009-2.651-1.484l-2.684-1.261
		c-1.119-0.51-2.139-1.046-3.07-1.622c-0.92-0.571-1.723-1.226-2.396-1.95c-0.669-0.729-1.198-1.544-1.575-2.449
		c-0.374-0.905-0.561-1.928-0.561-3.076c0-1.27,0.237-2.452,0.709-3.539c0.469-1.088,1.125-2.033,1.963-2.839
		c0.841-0.803,1.822-1.433,2.977-1.884c1.146-0.451,2.391-0.677,3.718-0.677c1.055,0,2.057,0.111,2.994,0.343
		c0.946,0.229,1.811,0.548,2.607,0.967s1.528,0.918,2.18,1.507c0.659,0.584,1.238,1.239,1.723,1.958L81.446,11.4
		c-0.428-0.565-0.902-1.093-1.421-1.573c-0.527-0.482-1.081-0.895-1.688-1.238c-0.606-0.347-1.251-0.615-1.935-0.807
		c-0.677-0.188-1.399-0.284-2.167-0.284c-0.855,0-1.641,0.125-2.364,0.375c-0.718,0.255-1.339,0.611-1.854,1.072
		c-0.524,0.457-0.929,1.02-1.217,1.674c-0.292,0.661-0.439,1.405-0.439,2.231c0,0.779,0.116,1.474,0.343,2.067
		c0.233,0.599,0.596,1.147,1.091,1.652c0.501,0.505,1.137,0.989,1.913,1.455c0.768,0.457,1.705,0.932,2.789,1.419l2.578,1.173
		c1.304,0.58,2.42,1.208,3.362,1.881c0.932,0.677,1.695,1.411,2.295,2.209c0.598,0.792,1.037,1.664,1.318,2.603
		C84.335,28.254,84.476,29.3,84.476,30.447"/>
	<path fill="#414346" d="M93.317,9.907c0,0.29-0.062,0.567-0.182,0.828c-0.122,0.255-0.281,0.486-0.483,0.688
		c-0.199,0.198-0.431,0.356-0.7,0.47c-0.272,0.114-0.548,0.171-0.838,0.171c-0.299,0-0.596-0.057-0.876-0.171
		c-0.275-0.114-0.513-0.272-0.712-0.47c-0.195-0.202-0.352-0.434-0.469-0.688c-0.114-0.261-0.173-0.538-0.173-0.828
		c0-0.615,0.214-1.125,0.642-1.538c0.431-0.409,0.957-0.617,1.588-0.617c0.29,0,0.565,0.05,0.838,0.155
		c0.27,0.11,0.501,0.264,0.7,0.461c0.202,0.202,0.362,0.429,0.483,0.684C93.256,9.32,93.317,9.6,93.317,9.907 M89.371,17.532h3.441
		V40.19h-3.441V17.532z"/>
	<path fill="#414346" d="M114.187,40.19V26.324c0-0.964-0.078-1.843-0.227-2.64c-0.158-0.795-0.422-1.481-0.797-2.057
		c-0.372-0.574-0.885-1.015-1.55-1.332c-0.65-0.312-1.488-0.47-2.499-0.47c-0.976,0-1.844,0.207-2.591,0.615
		c-0.754,0.417-1.384,0.993-1.9,1.726c-0.513,0.735-0.899,1.603-1.166,2.599c-0.267,0.993-0.404,2.065-0.404,3.211V40.19h-3.439
		V17.532h3.439v3.237h0.095c0.702-1.194,1.642-2.121,2.811-2.78s2.566-0.987,4.187-0.987c2.389,0,4.236,0.728,5.537,2.18
		c1.301,1.458,1.95,3.584,1.95,6.384V40.19H114.187z"/>
	<path fill="#414346" d="M141.766,40.19v-3.946h-0.097c-0.349,0.7-0.826,1.336-1.433,1.894c-0.604,0.561-1.274,1.024-2.021,1.411
		c-0.744,0.382-1.526,0.672-2.353,0.875c-0.826,0.198-1.655,0.294-2.479,0.294c-1.652,0-3.164-0.299-4.526-0.905
		c-1.359-0.606-2.528-1.441-3.51-2.514s-1.746-2.338-2.285-3.8c-0.545-1.46-0.814-3.042-0.814-4.743
		c0-1.635,0.264-3.168,0.806-4.601c0.53-1.433,1.286-2.679,2.259-3.731c0.976-1.058,2.139-1.89,3.51-2.505
		c1.368-0.612,2.889-0.917,4.562-0.917c0.841,0,1.661,0.095,2.467,0.289c0.809,0.189,1.567,0.47,2.294,0.839
		c0.731,0.363,1.392,0.813,1.989,1.345c0.595,0.527,1.11,1.134,1.535,1.824h0.097v-3.766h3.413V40.19H141.766z M141.9,28.575
		c0-1.195-0.196-2.319-0.583-3.365c-0.396-1.049-0.946-1.975-1.664-2.77c-0.724-0.792-1.594-1.419-2.607-1.881
		c-1.017-0.457-2.145-0.686-3.393-0.686c-1.266,0-2.399,0.233-3.407,0.694c-1.002,0.473-1.854,1.107-2.558,1.912
		c-0.706,0.8-1.241,1.745-1.61,2.833c-0.369,1.087-0.546,2.251-0.546,3.491c0,1.195,0.193,2.333,0.582,3.419
		c0.394,1.088,0.951,2.052,1.663,2.883c0.721,0.835,1.597,1.501,2.622,1.995c1.025,0.5,2.162,0.751,3.422,0.751
		c1.301,0,2.454-0.252,3.454-0.76c1.002-0.505,1.846-1.187,2.534-2.043s1.213-1.846,1.562-2.965
		C141.725,30.97,141.9,29.797,141.9,28.575"/>
	<path fill="#414346" d="M174.113,28.663c0,1.705-0.273,3.286-0.818,4.755c-0.539,1.472-1.301,2.742-2.275,3.819
		c-0.969,1.081-2.139,1.934-3.498,2.553c-1.359,0.617-2.869,0.927-4.521,0.927c-0.832,0-1.652-0.094-2.466-0.286
		c-0.826-0.192-1.597-0.466-2.323-0.826c-0.724-0.36-1.386-0.8-1.986-1.323c-0.589-0.519-1.09-1.107-1.491-1.764h-0.091v16.508
		h-3.445V17.532h3.445v3.511h0.091c0.463-0.643,0.996-1.217,1.607-1.723c0.614-0.501,1.283-0.927,2.011-1.274
		c0.729-0.343,1.488-0.606,2.293-0.782c0.803-0.174,1.617-0.262,2.445-0.262c1.668,0,3.178,0.297,4.537,0.895
		c1.35,0.596,2.51,1.422,3.477,2.468c0.961,1.052,1.705,2.287,2.227,3.71C173.85,25.498,174.113,27.028,174.113,28.663
		 M170.895,28.755c0-1.191-0.191-2.325-0.588-3.393c-0.387-1.077-0.943-2.008-1.66-2.807c-0.723-0.797-1.586-1.425-2.596-1.891
		c-1.012-0.47-2.133-0.703-3.373-0.703s-2.367,0.224-3.386,0.681c-1.02,0.448-1.887,1.063-2.593,1.846
		c-0.712,0.779-1.271,1.692-1.658,2.733c-0.387,1.037-0.583,2.158-0.583,3.353c0,1.222,0.176,2.389,0.529,3.498
		c0.35,1.112,0.875,2.087,1.556,2.927c0.693,0.845,1.54,1.516,2.55,2.013c1.017,0.492,2.178,0.74,3.492,0.74
		c1.254,0,2.396-0.248,3.422-0.74c1.023-0.497,1.898-1.16,2.613-1.986c0.727-0.831,1.281-1.783,1.68-2.87
		C170.692,31.07,170.895,29.933,170.895,28.755"/>
	<polygon fill="#86BC25" points="183.66,20.584 183.66,40.19 180.215,40.19 180.215,20.584 177.67,20.584 177.67,17.532 
		180.215,17.532 180.215,9.723 183.66,9.723 183.66,17.532 187.748,17.532 187.748,20.584 	"/>
	<path fill="#86BC25" d="M200.891,20.423c-0.439-0.092-0.877-0.141-1.316-0.141c-1.436,0-2.551,0.69-3.334,2.065
		c-0.779,1.375-1.167,3.516-1.167,6.422v11.42h-3.445V17.532h3.445v3.1h0.089c0.537-1.228,1.254-2.128,2.15-2.713
		c0.891-0.58,1.979-0.87,3.246-0.87c0.402,0,0.783,0.048,1.143,0.136c0.375,0.097,0.732,0.207,1.088,0.347l-0.762,3.305
		C201.693,20.656,201.313,20.516,200.891,20.423"/>
	<path fill="#86BC25" d="M211.053,9.907c0,0.29-0.061,0.567-0.178,0.828c-0.123,0.255-0.287,0.486-0.49,0.688
		c-0.195,0.198-0.43,0.356-0.697,0.47c-0.27,0.114-0.545,0.171-0.838,0.171c-0.311,0-0.594-0.057-0.874-0.171
		c-0.272-0.114-0.51-0.272-0.712-0.47c-0.195-0.202-0.354-0.434-0.471-0.688c-0.117-0.261-0.164-0.538-0.164-0.828
		c0-0.615,0.205-1.125,0.635-1.538c0.43-0.409,0.959-0.617,1.586-0.617c0.293,0,0.568,0.05,0.838,0.155
		c0.268,0.11,0.502,0.264,0.697,0.461c0.203,0.202,0.367,0.429,0.49,0.684C210.992,9.32,211.053,9.6,211.053,9.907 M207.098,17.532
		h3.445V40.19h-3.445V17.532z"/>
	<polygon fill="#86BC25" points="231.33,40.19 224.688,30.935 224.598,30.935 218.146,40.19 214.24,40.19 222.811,28.527 
		214.771,17.532 218.768,17.532 224.781,26.044 224.879,26.044 230.793,17.532 234.701,17.532 226.662,28.391 235.275,40.19 	"/>
</g>
<g>
	<path fill="#86BC25" d="M25.97,21.58c-0.047,4.778-3.976,8.684-8.757,8.636c-4.778-0.053-8.613-3.964-8.561-8.741
		c0.047-4.781,3.958-8.608,8.736-8.558l-0.006-8.655C7.829,4.165,0.101,11.829,0.001,21.387c-0.1,9.554,7.564,17.381,17.121,17.479
		c9.558,0.1,17.354-7.731,17.453-17.285H25.97z"/>
	<path fill="#414346" d="M25.891,21.55c0.05-4.78,3.976-8.686,8.754-8.639c4.784,0.052,8.613,3.964,8.568,8.742
		c-0.053,4.778-3.965,8.606-8.738,8.558l0.001,8.654c9.555,0.1,17.287-7.567,17.386-17.122c0.097-9.554-7.567-17.385-17.124-17.481
		c-9.554-0.097-17.356,7.734-17.453,17.288H25.891z"/>
</g>
</svg>
